<?xml version="1.0" encoding="utf-8"?>
<!-- Generator: Adobe Illustrator 28.0.0, SVG Export Plug-In . SVG Version: 6.00 Build 0)  -->
<svg version="1.1" id="Layer_1" xmlns="http://www.w3.org/2000/svg" xmlns:xlink="http://www.w3.org/1999/xlink" x="0px" y="0px"
	 viewBox="0 0 24 24" style="enable-background:new 0 0 24 24;" xml:space="preserve">
<style type="text/css">
	.st0{fill:none;}
	.st1{fill:none;stroke:#4A90E2;stroke-width:2;stroke-linecap:round;stroke-linejoin:round;}
</style>
<path class="st0" d="M0,0h24v24H0V0z"/>
<g>
	<path class="st1" d="M11.8,21H5c-1.1,0-2-0.9-2-2V7c0-1.1,0.9-2,2-2h12c1.1,0,2,0.9,2,2v4"/>
	<path class="st1" d="M14,18c0,2.2,1.8,4,4,4s4-1.8,4-4s-1.8-4-4-4S14,15.8,14,18"/>
	<path class="st1" d="M15,3v4"/>
	<path class="st1" d="M7,3v4"/>
	<path class="st1" d="M3,11h16"/>
	<path class="st1" d="M18,16.5V18l1,1"/>
</g>
</svg>
