<?xml version="1.0" encoding="utf-8"?>
<!-- Generator: Adobe Illustrator 28.0.0, SVG Export Plug-In . SVG Version: 6.00 Build 0)  -->
<svg version="1.1" id="Layer_1" xmlns="http://www.w3.org/2000/svg" xmlns:xlink="http://www.w3.org/1999/xlink" x="0px" y="0px"
	 viewBox="0 0 24 14" style="enable-background:new 0 0 24 14;" xml:space="preserve">
<style type="text/css">
	.st0{fill:none;stroke:#E04B6F;stroke-width:2;stroke-linecap:round;stroke-linejoin:round;}
	.st1{fill:#DFC496;stroke:#DFC496;stroke-miterlimit:10;}
</style>
<g>
	<path class="st0" d="M88.6-3.4c2.3-2.3,2.3-6.1,0-8.5c-2.3-2.3-6.1-2.3-8.5,0l-6.8,6.8v8.5h8.5L88.6-3.4z"/>
	<line class="st0" x1="84.4" y1="-7.7" x2="70.4" y2="6.3"/>
	<line class="st0" x1="85.9" y1="-0.7" x2="77.4" y2="-0.7"/>
</g>
<path class="st1" d="M18,3.3C18.1,3.3,18.1,3.3,18,3.3c0.1-0.9,0.3-1.2,1.2-1.2c0.8,0,1.6,0,2.4,0c0.6,0,1,0.4,1,1
	c0,2.2,0,4.3,0,6.5c0,0.6-0.4,1-0.9,1c-0.9,0-1.8,0-2.7,0c-0.4,0-0.8-0.2-0.9-0.6c0-0.1-0.1-0.1-0.2-0.1c-0.7,0.1-1.3,0.3-2,0.4
	c-0.1,0-0.1,0-0.1,0.1c-1,1.5-0.8,1.1-2.3,1.9c-0.5,0.3-1.1,0.5-1.7,0.4c-0.5-0.1-1.1-0.2-1.6-0.4c-1.3-0.4-2.5-1-3.5-1.9
	c-0.1-0.1-0.2-0.1-0.2-0.2c-0.2-0.1-0.4-0.1-0.5,0.1c-0.1,0.2-0.4,0.3-0.7,0.3c-0.9,0-1.8,0-2.7,0c-0.6,0-0.9-0.4-0.9-1
	c0-2.2,0-4.3,0-6.5c0-0.6,0.4-1,1-1c0.9,0,1.7,0,2.6,0c0.6,0,1,0.4,1,1c0,0.2-0.1,0.4,0,0.5c0.1,0.1,0.3,0,0.5,0
	C8.1,3.4,9.5,3.2,11,3c0.1,0,0.2-0.1,0.3-0.1c0.2-0.2,0.5-0.4,0.7-0.7c0.5-0.5,1.1-0.6,1.8-0.4c1.1,0.2,2.1,0.6,3.1,1
	C17.3,3,17.6,3.1,18,3.3z M13.3,5.2c-0.3,0.2-0.6,0.4-0.9,0.7c-0.4,0.3-0.9,0.5-1.4,0.7c-0.9,0.3-1.7-0.3-1.7-1.2
	c0-0.3,0.1-0.6,0.3-0.8c0.2-0.2,0.4-0.5,0.7-0.7c-0.1,0-0.1,0-0.2,0C8.8,4,7.5,4.2,6.2,4.3c-0.1,0-0.1,0.1-0.1,0.2
	c0,1.6,0,3.1,0,4.7c0,0.2,0.1,0.2,0.2,0.2c0.2,0,0.4,0,0.6,0.2C7,9.8,7.2,9.9,7.4,10c1.2,0.9,2.5,1.5,4,1.7c0.5,0.1,1,0.1,1.4-0.1
	c0.4-0.2,0.8-0.4,1.3-0.6c0.2-0.1,0.3-0.2,0.4-0.3c0.2-0.2,0.4-0.5,0.5-0.7c0.1-0.1,0.1-0.1,0-0.2c-0.2-0.2-0.3-0.4-0.4-0.6
	c-0.2-0.5-0.3-0.9-0.5-1.4C13.9,7,13.6,6.1,13.3,5.2z M18.1,6.6c0-0.8,0-1.5,0-2.3c0-0.1,0-0.2-0.2-0.3c-0.2-0.1-0.4-0.2-0.7-0.3
	c-1.1-0.5-2.3-0.9-3.5-1.2c-0.6-0.1-1,0-1.5,0.3c-0.8,0.7-1.5,1.4-2.2,2.2c-0.2,0.2-0.2,0.5,0,0.7c0.1,0.2,0.4,0.3,0.7,0.2
	c0.4-0.1,0.8-0.3,1.1-0.6c0.3-0.3,0.7-0.5,1-0.7c0.4-0.3,0.9-0.2,1,0.3c0.5,1.4,0.9,2.7,1.4,4.1c0.1,0.4,0.3,0.5,0.7,0.4
	c0.6-0.1,1.2-0.2,1.9-0.4c0.1,0,0.2-0.1,0.2-0.2C18.1,8.1,18.1,7.3,18.1,6.6z M2.3,6.3c0,1.1,0,2.1,0,3.2c0,0.3,0.1,0.3,0.3,0.3
	c0.8,0,1.7,0,2.5,0c0.2,0,0.3-0.1,0.3-0.3c0-2.1,0-4.3,0-6.4c0-0.2,0-0.3-0.3-0.3c-0.8,0-1.7,0-2.5,0c-0.3,0-0.3,0-0.3,0.3
	C2.3,4.2,2.3,5.3,2.3,6.3z M21.9,6.3c0-1.1,0-2.1,0-3.2c0-0.3,0-0.3-0.3-0.3c-0.8,0-1.7,0-2.5,0c-0.3,0-0.3,0-0.3,0.3
	c0,2.1,0,4.3,0,6.4c0,0.3,0.1,0.3,0.3,0.3c0.8,0,1.7,0,2.5,0c0.3,0,0.3-0.1,0.3-0.3C21.9,8.5,21.9,7.4,21.9,6.3z"/>
</svg>
