<?xml version="1.0" encoding="utf-8"?>
<!-- Generator: Adobe Illustrator 28.0.0, SVG Export Plug-In . SVG Version: 6.00 Build 0)  -->
<svg version="1.1" id="Layer_1" xmlns="http://www.w3.org/2000/svg" xmlns:xlink="http://www.w3.org/1999/xlink" x="0px" y="0px"
	 viewBox="0 0 24 14" style="enable-background:new 0 0 24 14;" xml:space="preserve">
<style type="text/css">
	.st0{fill:none;}
	.st1{fill:#1ABC9C;}
</style>
<path class="st0" d="M0-5h24v24H0V-5z"/>
<g>
	<g>
		<g>
			<path class="st1" d="M1.6,10.7c3.4,0,6.9,0,10.3,0c0.5,0,1,0,1.5,0c1,0,1-1.5,0-1.5c-3.4,0-6.9,0-10.3,0c-0.5,0-1,0-1.5,0
				C0.6,9.2,0.6,10.7,1.6,10.7L1.6,10.7z"/>
		</g>
	</g>
	<g>
		<g>
			<g>
				<path class="st1" d="M1.6,13.3c3.4,0,6.9,0,10.3,0c0.5,0,1,0,1.5,0c1,0,1-1.5,0-1.5c-3.4,0-6.9,0-10.3,0c-0.5,0-1,0-1.5,0
					C0.6,11.8,0.6,13.3,1.6,13.3L1.6,13.3z"/>
			</g>
		</g>
		<g>
			<g>
				<path class="st1" d="M5.4,9.3c-1.5-1-2.1-2.8-1.6-4.5c0.5-1.5,1.9-2.5,3.5-2.6C7.1,1.9,6.8,1.7,6.6,1.4c0,0,0,0,0,0
					c0,0.4,0.3,0.8,0.8,0.8c0.1,0,0.1,0,0.2,0C7.3,1.8,7.2,1.3,7,0.9c-1.5,1.5-1.8,4-0.7,5.8c1.1,1.8,3.3,2.6,5.3,1.8
					c-0.3-0.3-0.6-0.6-0.9-0.9c-0.3,0.7-0.8,1.3-1.5,1.7c-0.8,0.5-0.1,1.8,0.8,1.3c1-0.6,1.7-1.5,2.2-2.6c0.2-0.5-0.4-1.1-0.9-0.9
					C9.9,7.6,8.4,7.2,7.6,6C6.8,4.7,7,3,8,2c0.5-0.5,0.1-1.3-0.5-1.3c-0.1,0-0.1,0-0.2,0C7.6,1,7.8,1.2,8.1,1.5c0,0,0,0,0,0
					c0-0.4-0.3-0.8-0.8-0.8c-2.3,0-4.2,1.5-4.9,3.7c-0.8,2.3,0.2,4.9,2.3,6.2C5.5,11.1,6.2,9.8,5.4,9.3L5.4,9.3z"/>
			</g>
		</g>
	</g>
</g>
</svg>
