<?xml version="1.0" encoding="utf-8"?>
<!-- Generator: Adobe Illustrator 28.0.0, SVG Export Plug-In . SVG Version: 6.00 Build 0)  -->
<svg version="1.1" id="Layer_1" xmlns="http://www.w3.org/2000/svg" xmlns:xlink="http://www.w3.org/1999/xlink" x="0px" y="0px"
	 viewBox="0 0 24 24" style="enable-background:new 0 0 24 24;" xml:space="preserve">
<style type="text/css">
	.st0{fill:#4A90E2;}
</style>
<path class="st0" d="M0,19.7c0.4,0,0.9,0,1.3-0.1c0.2,0,0.5-0.1,0.6-0.2c1.6-1.6,3.1-3.2,4.8-4.9c-0.2-0.2-0.5-0.4-0.8-0.7
	c-0.3-0.2-0.3-0.4,0-0.7c1-1,1.9-2,2.9-3.1C8.5,9.7,8.1,9.4,7.8,9.1c2.2-2.3,4.3-4.5,6.5-6.8c3.3,3.2,6.5,6.4,9.7,9.6
	c0,0.1,0,0.1,0,0.2c-0.1,0.1-0.3,0.2-0.4,0.3c-1.8,1.8-3.6,3.5-5.4,5.3c-0.9,0.9-0.9,0.9-1.7,0c-0.1-0.1-0.3-0.2-0.5-0.5
	c-1.1,1.1-2.1,2.2-3.3,3.4c-0.4-0.5-0.7-0.9-1.1-1.5c-0.7,0.7-1.3,1.4-1.9,1.9c-0.2,0.2-0.5,0.3-0.7,0.3c-2.8,0-5.7,0-8.5,0
	c-0.2,0-0.4-0.1-0.6-0.1C0,20.9,0,20.3,0,19.7z M10.6,8.9c2.2,2.3,4.5,4.7,6.8,7.1c1.3-1.4,2.6-2.7,3.9-4c-2.3-2.2-4.6-4.5-7-6.9
	C13,6.4,11.7,7.7,10.6,8.9z M8.5,13.4c1.4,1.5,2.9,3,4.4,4.6c0.6-0.7,1.2-1.3,1.7-1.8c-1.4-1.5-2.9-3-4.4-4.6
	C9.5,12.3,9,12.9,8.5,13.4z M10.1,18.3c-0.7-0.8-1.4-1.5-2.1-2.2c-1.1,1.2-2.3,2.4-3.4,3.5c1.3,0,2.6,0,4,0c0.1,0,0.2-0.1,0.3-0.2
	C9.3,19.1,9.7,18.6,10.1,18.3z"/>
</svg>
