<?xml version="1.0" encoding="utf-8"?>
<!-- Generator: Adobe Illustrator 28.0.0, SVG Export Plug-In . SVG Version: 6.00 Build 0)  -->
<svg version="1.1" id="Layer_1" xmlns="http://www.w3.org/2000/svg" xmlns:xlink="http://www.w3.org/1999/xlink" x="0px" y="0px"
	 viewBox="0 0 24 24" style="enable-background:new 0 0 24 24;" xml:space="preserve">
<style type="text/css">
	.st0{fill:#1ABC9C;stroke:#1ABC9C;stroke-width:0.75;stroke-miterlimit:10;}
</style>
<path class="st0" d="M23,15.8c-0.1,0.3-0.4,0.4-0.7,0.4c-0.8,0-1.5,0-2.3,0c-0.2,0-0.3,0.1-0.5,0.2c-2.3,2.3-4.7,4.6-7,6.9
	c-0.4,0.4-0.7,0.4-1.1,0C9,21,6.7,18.7,4.3,16.4c-0.1-0.1-0.2-0.2-0.4-0.2c-0.8,0-1.6,0-2.4,0c-0.4,0-0.7-0.4-0.5-0.8
	c0.1-0.2,0.3-0.3,0.5-0.3c0.5,0,1,0,1.4,0c0.1,0,0.1,0,0.2,0c-1-1.5-1.3-3.1-0.7-4.8c0.6-1.1,1.4-2,2.4-2.6c2.3-1.4,5.6-0.9,7.2,1.6
	c0.9-1.4,2.3-2.2,3.9-2.4c1.3-0.1,2.6,0.2,3.6,1c1.2,0.8,1.9,1.9,2.1,3.3s-0.1,2.7-0.9,3.9c0.2,0,0.3,0,0.4,0c0.4,0,0.8,0,1.1,0
	c0.3,0,0.6,0.1,0.7,0.4C23,15.6,23,15.7,23,15.8z M11.9,16.2C12,16.1,12,16,12,16c0.7-1.5,1.4-2.9,2-4.4c0.1-0.3,0.3-0.5,0.6-0.5
	s0.5,0.3,0.5,0.6c0.3,1.1,0.7,2.2,1,3.3c0,0.1,0.1,0.2,0.3,0.2c0.9,0,1.8,0,2.7,0c0.1,0,0.2,0,0.3-0.1c1.1-1.2,1.5-2.5,1.1-4.1
	c-0.5-1.6-2-2.8-3.7-2.9c-1.7-0.1-3.4,0.8-4.1,2.3c-0.1,0.2-0.2,0.3-0.3,0.5c-0.3,0.3-0.5,0.3-0.8,0c-0.1-0.1-0.2-0.3-0.2-0.4
	c-0.9-1.8-2.7-2.8-4.7-2.4C5.1,8.5,4,9.4,3.5,11c-0.5,1.5-0.1,2.9,1,4c0.1,0.1,0.2,0.1,0.3,0.1c1.1,0,2.2,0,3.3,0
	c0.2,0,0.3-0.1,0.3-0.2c0.4-0.6,0.7-1.2,1.1-1.9c0.1-0.2,0.3-0.3,0.5-0.3c0.3,0,0.4,0.2,0.5,0.4c0.2,0.5,0.5,1.1,0.7,1.6
	C11.5,15.2,11.7,15.7,11.9,16.2z M5.9,16.2C5.9,16.2,5.9,16.3,5.9,16.2c2,2,4.1,4,6.1,6.1c2.1-2,4.1-4,6.1-6c0,0,0,0,0-0.1
	c-0.1,0-0.2,0-0.2,0c-0.6,0-1.3,0-1.9,0c-0.4,0-0.6-0.1-0.7-0.5c-0.2-0.8-0.5-1.6-0.7-2.3c0,0,0-0.1-0.1-0.2c0,0.1-0.1,0.2-0.1,0.2
	c-0.7,1.5-1.3,2.9-2,4.4c-0.1,0.1-0.1,0.3-0.2,0.4c-0.2,0.3-0.5,0.3-0.7,0c-0.1-0.1-0.2-0.3-0.2-0.4c-0.4-0.9-0.8-1.9-1.1-2.8
	c0-0.1-0.1-0.2-0.2-0.4c-0.3,0.4-0.5,0.8-0.7,1.2c-0.2,0.3-0.4,0.4-0.7,0.4c-0.8,0-1.6,0-2.5,0C6,16.2,5.9,16.2,5.9,16.2z"/>
</svg>
