<?xml version="1.0" encoding="utf-8"?>
<!-- Generator: Adobe Illustrator 28.0.0, SVG Export Plug-In . SVG Version: 6.00 Build 0)  -->
<svg version="1.1" id="Layer_1" xmlns="http://www.w3.org/2000/svg" xmlns:xlink="http://www.w3.org/1999/xlink" x="0px" y="0px"
	 viewBox="0 0 24 24" style="enable-background:new 0 0 24 24;" xml:space="preserve">
<style type="text/css">
	.st0{fill:#ABBFE2;stroke:#ABBFE2;stroke-width:0.5;stroke-miterlimit:10;}
</style>
<g>
	<path class="st0" d="M12.2,20.5c-0.7,0-1.3,0-2,0c-0.4,0-0.6-0.2-0.6-0.6c0-0.3,0-0.6,0-0.8c0-0.2-0.1-0.2-0.2-0.3
		c-1.4-0.8-2.4-2-2.7-3.7C6,11.9,8.3,8.7,11.5,8.3c3.1-0.4,6,1.9,6.2,5c0.2,2.3-0.8,4.1-2.8,5.4c-0.2,0.1-0.3,0.2-0.2,0.4
		c0,0.3,0,0.5,0,0.8c0,0.4-0.2,0.6-0.6,0.6C13.5,20.5,12.8,20.5,12.2,20.5z M13.7,19.5c0-0.3,0-0.5,0-0.7c0-0.4,0.1-0.6,0.5-0.7
		c1.8-0.9,2.8-2.7,2.6-4.7c-0.2-1.8-1.2-3.1-2.9-3.7c-1.7-0.6-3.3-0.3-4.7,0.9c-2.5,2.2-1.9,6.1,1.1,7.5c0.3,0.1,0.4,0.3,0.4,0.7
		c0,0.3,0,0.5,0,0.8C11.7,19.5,12.7,19.5,13.7,19.5z"/>
	<path class="st0" d="M12.2,22.3c0.7,0,1.3,0,2,0c0.3,0,0.5,0.2,0.6,0.4c0.1,0.3-0.2,0.6-0.6,0.6c-0.7,0-1.5,0-2.2,0
		c-0.6,0-1.1,0-1.7,0c-0.4,0-0.6-0.2-0.6-0.6c0-0.3,0.2-0.5,0.6-0.5C10.9,22.3,11.5,22.3,12.2,22.3z"/>
	<path class="st0" d="M20.3,18.2c0.3,0.2,0.6,0.3,0.9,0.5c0.1,0.1,0.2,0.3,0.1,0.5c-0.1,0.3-0.4,0.5-0.6,0.4c-0.3-0.2-0.7-0.4-1-0.6
		c-0.3-0.2-0.5-0.3-0.8-0.5c-0.2-0.1-0.2-0.4,0-0.6c0.2-0.2,0.3-0.3,0.5-0.3C19.7,17.8,20,18,20.3,18.2z"/>
	<path class="st0" d="M21,12.2c0.4,0,0.8,0,1.2,0c0.2,0,0.3,0.2,0.4,0.4c0,0.3-0.1,0.6-0.4,0.6c-0.5,0-0.9,0-1.4,0
		c-0.4,0-0.7,0-1.1,0c-0.2,0-0.4-0.2-0.4-0.6c0-0.3,0.1-0.5,0.4-0.5C20.2,12.2,20.6,12.2,21,12.2z"/>
	<path class="st0" d="M17.9,6.6c0.2-0.3,0.4-0.7,0.6-1c0.1-0.2,0.3-0.2,0.5-0.1c0.3,0.1,0.5,0.4,0.4,0.6c-0.2,0.4-0.4,0.7-0.6,1.1
		c-0.2,0.3-0.3,0.6-0.5,0.8c-0.1,0.2-0.4,0.2-0.6,0c-0.2-0.2-0.3-0.4-0.2-0.5C17.5,7.3,17.7,7,17.9,6.6z"/>
	<path class="st0" d="M3.7,18.3c-0.3,0.2-0.6,0.3-0.9,0.5c-0.1,0.1-0.2,0.3-0.1,0.5c0.1,0.3,0.4,0.5,0.6,0.4c0.3-0.2,0.7-0.4,1-0.6
		c0.3-0.2,0.5-0.3,0.8-0.5c0.2-0.1,0.2-0.4,0-0.6c-0.2-0.2-0.3-0.3-0.5-0.3C4.3,18,4,18.1,3.7,18.3z"/>
	<path class="st0" d="M3,12.3c-0.4,0-0.8,0-1.2,0c-0.2,0-0.3,0.2-0.4,0.4c0,0.3,0.1,0.6,0.4,0.6c0.5,0,0.9,0,1.4,0
		c0.4,0,0.7,0,1.1,0c0.2,0,0.4-0.2,0.4-0.6c0-0.3-0.1-0.5-0.4-0.5C3.8,12.3,3.4,12.3,3,12.3z"/>
	<path class="st0" d="M6.1,6.8c-0.2-0.3-0.4-0.7-0.6-1C5.5,5.6,5.3,5.6,5,5.7C4.7,5.9,4.6,6.1,4.7,6.3C4.9,6.7,5.1,7,5.3,7.4
		C5.5,7.7,5.6,8,5.8,8.3c0.1,0.2,0.4,0.2,0.6,0c0.2-0.2,0.3-0.4,0.2-0.5C6.5,7.4,6.3,7.1,6.1,6.8z"/>
</g>
</svg>
