<?xml version="1.0" encoding="utf-8"?>
<!-- Generator: Adobe Illustrator 28.0.0, SVG Export Plug-In . SVG Version: 6.00 Build 0)  -->
<svg version="1.1" id="Layer_1" xmlns="http://www.w3.org/2000/svg" xmlns:xlink="http://www.w3.org/1999/xlink" x="0px" y="0px"
	 viewBox="0 0 24 24" style="enable-background:new 0 0 24 24;" xml:space="preserve">
<style type="text/css">
	.st0{fill:none;stroke:#DC5697;stroke-width:2;stroke-miterlimit:10;}
	.st1{fill:#DC5697;}
	.st2{fill:#DFC496;stroke:#DFC496;stroke-miterlimit:10;}
</style>
<g>
	<path class="st0" d="M58.4-8.2c0,1,0,2,0,3C58.3-5.1,58.3-5,58.3-5c-0.1,1-0.2,2-0.4,2.9c-0.4,1.7-1,3.3-2.3,4.5
		c-0.8,0.8-1.8,1.3-3,1.4c-1.5,0.1-2.8-0.4-4-1.2c-1.9-1.2-3.3-2.8-4.6-4.5c-0.8-1.1-1.5-2.2-2.1-3.4c0-0.1-0.1-0.2-0.1-0.2
		c-0.7-1.3-1.3-2.7-1.8-4.1c-0.3-0.7,0.1-1.2,0.8-1c0.3,0,0.6,0.1,0.9,0.1c0.3,0,0.5,0,0.8,0c1.5,0,3.1-0.3,4.6-0.7h0.1l0,0
		c0.1,0,0.2,0,0.3,0c1.3-0.4,2.6-0.8,3.9-1.4c1.7-0.8,3.4-1.7,4.7-3c0.4-0.4,1-0.2,1.1,0.4c0.6,2.1,1,4.1,1.1,6.3
		C58.3-8.7,58.3-8.5,58.4-8.2z"/>
	<path class="st1" d="M50.4-0.4c-0.7,0-1.5-0.2-2.1-0.8c-0.4-0.4-0.3-0.7,0.2-0.9c1.8-0.6,3.6-1.2,5.4-1.7c0.5-0.2,0.7,0.1,0.7,0.6
		c-0.1,0.8-0.6,1.4-1.1,1.8C52.7-0.8,51.5-0.4,50.4-0.4z"/>
	<path class="st1" d="M47-7c0.5,0,1,0.1,1.4,0.5c0.4,0.3,0.3,0.7-0.2,0.9c-0.9,0.3-1.8,0.6-2.8,0.9c-0.5,0.1-0.8-0.1-0.6-0.6
		c0.2-0.8,0.9-1.4,1.8-1.6C46.7-7,46.9-7,47-7z"/>
	<path class="st1" d="M53.6-9.1c0.6,0,1,0.1,1.4,0.5c0.4,0.3,0.3,0.7-0.2,0.9C53.9-7.5,53-7.2,52-6.9c-0.4,0.1-0.8-0.2-0.6-0.6
		c0.2-0.9,0.9-1.3,1.7-1.6C53.3-9.1,53.5-9.2,53.6-9.1z"/>
</g>
<path class="st0" d="M-24,12c0,0.7,0,1.4,0,2.1c-0.1,0,0,0.1,0,0.2c-0.1,0.7-0.1,1.4-0.3,2.1c-0.3,1.2-0.8,2.4-1.7,3.3
	c-0.6,0.6-1.3,0.9-2.2,1c-1.1,0.1-2-0.3-2.9-0.9c-1.4-0.8-2.4-2-3.3-3.3c-0.6-0.8-1.1-1.6-1.6-2.5c0-0.1-0.1-0.1-0.1-0.2
	c-0.5-1-0.9-1.9-1.3-2.9c-0.2-0.5,0.1-0.8,0.6-0.8c0.2,0,0.4,0.1,0.7,0.1c0.2,0,0.4,0,0.6,0c1.1,0,2.2-0.2,3.3-0.5l0,0l0,0
	c0.1,0,0.1,0,0.2,0c1-0.3,1.9-0.6,2.8-1c1.3-0.6,2.4-1.2,3.4-2.2c0.3-0.3,0.7-0.2,0.8,0.3c0.4,1.5,0.7,3,0.8,4.5
	C-24.1,11.6-24.1,11.8-24,12z"/>
<path class="st0" d="M-35.2,10.1c0.2,0-1.9-0.1-1.9,0c-0.5,0.1-0.6,0.1-0.6,0.2c-0.1,0.1-0.1,0.3,0,0.6c0.4,1,0.8,2,1.3,2.9
	c0,0.1,0.1,0.1,0.1,0.2l-0.1,0.1c-0.6,0.5-1.3,0.9-2.1,1.3c-0.7,0.3-1.4,0.5-2.2,0.4c-1.1-0.1-1.9-0.5-2.6-1.4c-0.7-0.9-1-2-1.2-3.2
	c0-0.3,0-0.6-0.1-0.8c0-0.6,0-1.3,0-1.9c0.1-0.3,0.1-0.6,0.1-0.9c0.1-1.2,0.4-2.3,0.7-3.4c0.2-0.8,0.5-1.6,0.8-2.4
	c0.1-0.3,0.3-0.5,0.5-0.5s0.3,0.1,0.4,0.2c0.8,1,1.9,1.8,3,2.4c1.5,0.9,3,1.5,4.7,2c1,0.3,2,0.4,3,0.4c0.2,0,0.4,0.1,0.5,0.3
	c0.1,0.2,0.1,0.3,0,0.5c-0.4,0.9-0.9,1.7-1.4,2.5c0,0.1-0.1,0.1-0.1,0.2l0,0l0,0c-0.5,0.1-1,0.3-1.6,0.3c-0.5,0.1-1,0.1-1.4,0.1
	C-35.3,10.1-35.2,10.1-35.2,10.1"/>
<g>
	<path class="st1" d="M-29.8,17.6c-0.5,0-1.1-0.1-1.5-0.6c-0.3-0.3-0.2-0.5,0.2-0.7c1.3-0.4,2.6-0.8,3.9-1.3c0.3-0.1,0.5,0,0.5,0.4
		c-0.1,0.6-0.4,1-0.8,1.3C-28.2,17.4-29,17.6-29.8,17.6z"/>
	<path class="st1" d="M-32.3,12.9c0.4,0,0.7,0.1,1,0.3s0.2,0.5-0.1,0.6c-0.7,0.2-1.3,0.4-2,0.6c-0.3,0.1-0.5-0.1-0.5-0.4
		c0.1-0.5,0.7-1,1.3-1.1C-32.5,12.9-32.4,12.9-32.3,12.9z"/>
	<path class="st1" d="M-27.5,11.3c0.4,0,0.7,0.1,1,0.3s0.2,0.5-0.1,0.6c-0.7,0.2-1.3,0.4-2,0.7c-0.3,0.1-0.5-0.1-0.5-0.4
		c0.2-0.6,0.6-1,1.3-1.1C-27.7,11.3-27.5,11.3-27.5,11.3z"/>
	<path class="st1" d="M-36.6,10.1c-0.3-0.1-0.7-0.2-0.9-0.5c-0.2-0.2-0.4-0.5-0.4-0.8c-0.1-0.3,0.2-0.5,0.5-0.4
		c0.2,0.1,0.4,0.2,0.5,0.2c0.5,0.2,0.9,0.4,1.4,0.7c0.1,0.1,0.3,0.2,0.3,0.3c0,0.2-0.1,0.3-0.3,0.4c-0.1,0.1-0.3,0.1-0.5,0.2
		C-36.2,10.1-36.4,10.1-36.6,10.1z"/>
	<path class="st1" d="M-41.2,10.4c0.9,0.1,1.9,0.5,2.5,1.6c0.2,0.3,0.3,0.6,0.2,0.9c0,0.3-0.2,0.4-0.5,0.3c-0.7-0.3-1.5-0.7-2.2-1
		c-0.5-0.2-1.1-0.5-1.6-0.7c-0.3-0.1-0.4-0.5-0.1-0.7C-42.5,10.6-42.1,10.4-41.2,10.4z"/>
	<path class="st1" d="M-40.8,8c-0.8,0-1.4-0.4-1.7-1.1c-0.1-0.2-0.1-0.3-0.1-0.5s0.2-0.3,0.4-0.3c0.7,0.3,1.4,0.6,2.1,0.9
		c0.3,0.1,0.3,0.4,0,0.6C-40.3,7.9-40.6,8-40.8,8z"/>
</g>
<g>
	<g>
		<path class="st1" d="M21.7,12.5c0.1,2.3,0.2,5.2-1.3,7.1c-1,1.3-2.4,1.7-3.9,1.2c-1.4-0.5-2.6-1.6-3.6-2.7c-1-1.1-1.9-2.4-2.6-3.8
			C10,13.7,9.7,13,9.4,12.4c-0.1-0.3-0.2-0.9-0.5-1.2c0,0-0.1,0-0.1,0.1c-0.2,0.1-0.1,0.1,0.1,0.1c0.2,0.1,0.4,0.1,0.5,0.1
			c1.4,0.1,2.8-0.2,4.2-0.4c1.4-0.3,2.9-0.8,4.2-1.4c0.7-0.4,1.4-0.8,2.1-1.2c0.3-0.2,0.8-0.5,1-0.8c0.1-0.1,0.1-0.1,0.2-0.2
			c-0.1,0-0.2,0-0.4,0c0,0,0.2,0.7,0.2,0.8c0.2,0.9,0.4,1.8,0.5,2.7c0.1,0.4,0.1,0.9,0.2,1.3c0,0.1,0.1,0.5,0,0.2c0,0.1,0,0.2,0,0.3
			c0.1,1,1.6,0.5,1.4-0.4c0,0.3,0-0.3,0-0.1c0-0.2-0.1-0.4-0.1-0.6c-0.1-0.4-0.1-0.9-0.2-1.3c-0.2-1-0.3-2-0.6-3
			C22.1,6.6,21.8,6,21,6c-0.8,0-1.4,0.8-2,1.2c-1.6,1.1-3.4,1.9-5.3,2.2c-0.9,0.2-1.8,0.4-2.7,0.5c-0.4,0-0.8,0-1.2,0
			C9.4,9.9,9,9.8,8.6,9.8c-2,0.1-0.9,2.4-0.5,3.5c0.8,1.8,1.7,3.4,2.9,4.9c2,2.6,5.6,5.8,9,3.7c3.1-1.9,3.4-6.2,3.2-9.4
			C23.1,11.5,21.6,11.5,21.7,12.5z"/>
	</g>
</g>
<path class="st1" d="M16.4,18.4c-0.6,0-1.2-0.1-1.7-0.6c-0.3-0.3-0.2-0.6,0.2-0.7c1.4-0.5,2.8-0.9,4.2-1.4c0.4-0.1,0.6,0.1,0.5,0.4
	c-0.1,0.6-0.4,1-0.9,1.4C18.1,18.1,17.2,18.4,16.4,18.4z"/>
<path class="st1" d="M18.8,11.6c0.4,0,0.8,0.1,1.1,0.4c0.3,0.2,0.2,0.6-0.1,0.7c-0.7,0.2-1.4,0.5-2.2,0.7c-0.3,0.1-0.6-0.1-0.5-0.5
	c0.2-0.7,0.7-1,1.3-1.2C18.6,11.7,18.7,11.6,18.8,11.6z"/>
<path class="st1" d="M14,13c0.4,0,0.8,0.1,1.1,0.4c0.3,0.2,0.2,0.6-0.1,0.7c-0.7,0.2-1.4,0.5-2.2,0.7c-0.3,0.1-0.6-0.1-0.5-0.5
	c0.2-0.7,0.7-1,1.3-1.2C13.8,13,14,13,14,13z"/>
<g>
	<g>
		<path class="st1" d="M11,16.8c-1.4,1-3.1,2.3-4.9,2.5c-2.7,0.2-3.5-2.8-3.8-4.9c-0.3-2.5,0.3-5.1,1-7.4c0.1-0.3,0.2-0.5,0.3-0.8
			C3.7,6,4,5.4,4,5.2c0,0,0-0.1,0-0.1c-0.1,0-0.2,0-0.3,0c0,0.1,0.3,0.3,0.3,0.4C4.4,5.8,4.6,6,4.9,6.3C5.7,7,6.7,7.6,7.7,8.2
			c2.4,1.3,5.2,2.4,8,2.3c1-0.1,1-1.6,0-1.5c-2.9,0.2-6.1-1.2-8.5-2.8C6.6,5.8,6.1,5.3,5.5,4.8c-0.4-0.4-0.8-1-1.4-1.1
			C2.8,3.4,2.4,5,2.1,6c-1,2.7-1.6,5.8-1.2,8.6c0.3,2.5,1.2,5.3,4,6c2.5,0.6,5-1.2,7-2.6C12.6,17.5,11.8,16.2,11,16.8L11,16.8z"/>
		<path class="st1" d="M7.7,11c-0.3,0.5,0.1,1,0.2,1.4c0.2,0.5,0.5,1,0.7,1.5c0.7,1.4,1.3,2.7,2.2,4c0.2,0.3,0.7,0.5,1,0.3
			c0.3-0.2,0.5-0.7,0.3-1c-0.8-1.2-1.5-2.5-2.1-3.8c-0.2-0.4-0.4-0.9-0.6-1.3c0-0.1-0.1-0.2-0.1-0.3c0-0.1,0-0.1-0.1-0.2
			c-0.1-0.2,0.1,0.2,0,0c0-0.1-0.1-0.2-0.1-0.2c0,0,0,0,0-0.1c0,0,0,0,0,0c0,0.2,0,0.3-0.1,0.5C9.4,10.9,8.1,10.2,7.7,11L7.7,11z"/>
	</g>
</g>
<g>
	<path class="st1" d="M5.2,14.3c1,0.1,2,0.6,2.7,1.7c0.2,0.3,0.3,0.6,0.2,1c0,0.3-0.2,0.5-0.5,0.3c-0.8-0.4-1.6-0.7-2.4-1.1
		c-0.6-0.3-1.1-0.5-1.7-0.8c-0.3-0.1-0.4-0.5-0.1-0.7C3.8,14.5,4.3,14.3,5.2,14.3z"/>
	<path class="st1" d="M5.7,11.7c-0.8,0-1.5-0.5-1.8-1.1c-0.1-0.2-0.1-0.3-0.1-0.5S4,9.7,4.2,9.8c0.7,0.3,1.5,0.7,2.2,1
		c0.3,0.1,0.3,0.4,0,0.6C6.3,11.7,5.9,11.7,5.7,11.7z"/>
</g>
<path class="st2" d="M24.2-12.1C24.3-12.1,24.3-12.1,24.2-12.1c0.1-0.9,0.3-1.2,1.2-1.2c0.8,0,1.6,0,2.4,0c0.6,0,1,0.4,1,1
	c0,2.2,0,4.3,0,6.5c0,0.6-0.4,1-0.9,1c-0.9,0-1.8,0-2.7,0c-0.4,0-0.8-0.2-0.9-0.6c0-0.1-0.1-0.1-0.2-0.1c-0.7,0.1-1.3,0.3-2,0.4
	C22-5.1,22-5.1,22-5c-1,1.5-0.8,1.1-2.3,1.9c-0.5,0.3-1.1,0.5-1.7,0.4c-0.5-0.1-1.1-0.2-1.6-0.4c-1.3-0.4-2.5-1-3.5-1.9
	c-0.1-0.1-0.2-0.1-0.2-0.2c-0.2-0.1-0.4-0.1-0.5,0.1s-0.4,0.3-0.7,0.3c-0.9,0-1.8,0-2.7,0c-0.6,0-0.9-0.4-0.9-1c0-2.2,0-4.3,0-6.5
	c0-0.6,0.4-1,1-1c0.9,0,1.7,0,2.6,0c0.6,0,1,0.4,1,1c0,0.2-0.1,0.4,0,0.5s0.3,0,0.5,0c1.3-0.2,2.7-0.4,4.2-0.6
	c0.1,0,0.2-0.1,0.3-0.1c0.2-0.2,0.5-0.4,0.7-0.7c0.5-0.5,1.1-0.6,1.8-0.4c1.1,0.2,2.1,0.6,3.1,1C23.5-12.4,23.8-12.3,24.2-12.1z
	 M19.5-10.2c-0.3,0.2-0.6,0.4-0.9,0.7c-0.4,0.3-0.9,0.5-1.4,0.7c-0.9,0.3-1.7-0.3-1.7-1.2c0-0.3,0.1-0.6,0.3-0.8
	c0.2-0.2,0.4-0.5,0.7-0.7c-0.1,0-0.1,0-0.2,0c-1.3,0.1-2.6,0.3-3.9,0.4c-0.1,0-0.1,0.1-0.1,0.2c0,1.6,0,3.1,0,4.7
	C12.3-6,12.4-6,12.5-6c0.2,0,0.4,0,0.6,0.2c0.1,0.2,0.3,0.3,0.5,0.4c1.2,0.9,2.5,1.5,4,1.7c0.5,0.1,1,0.1,1.4-0.1
	c0.4-0.2,0.8-0.4,1.3-0.6c0.2-0.1,0.3-0.2,0.4-0.3c0.2-0.2,0.4-0.5,0.5-0.7c0.1-0.1,0.1-0.1,0-0.2C21-5.8,20.9-6,20.8-6.2
	c-0.2-0.5-0.3-0.9-0.5-1.4C20.1-8.4,19.8-9.3,19.5-10.2z M24.3-8.8c0-0.8,0-1.5,0-2.3c0-0.1,0-0.2-0.2-0.3s-0.4-0.2-0.7-0.3
	c-1.1-0.5-2.3-0.9-3.5-1.2c-0.6-0.1-1,0-1.5,0.3c-0.8,0.7-1.5,1.4-2.2,2.2c-0.2,0.2-0.2,0.5,0,0.7c0.1,0.2,0.4,0.3,0.7,0.2
	c0.4-0.1,0.8-0.3,1.1-0.6c0.3-0.3,0.7-0.5,1-0.7c0.4-0.3,0.9-0.2,1,0.3c0.5,1.4,0.9,2.7,1.4,4.1C21.5-6,21.7-5.9,22.1-6
	c0.6-0.1,1.2-0.2,1.9-0.4c0.1,0,0.2-0.1,0.2-0.2C24.3-7.3,24.3-8.1,24.3-8.8z M8.5-9.1c0,1.1,0,2.1,0,3.2c0,0.3,0.1,0.3,0.3,0.3
	c0.8,0,1.7,0,2.5,0c0.2,0,0.3-0.1,0.3-0.3c0-2.1,0-4.3,0-6.4c0-0.2,0-0.3-0.3-0.3c-0.8,0-1.7,0-2.5,0c-0.3,0-0.3,0-0.3,0.3
	C8.5-11.2,8.5-10.1,8.5-9.1z M28.1-9.1c0-1.1,0-2.1,0-3.2c0-0.3,0-0.3-0.3-0.3c-0.8,0-1.7,0-2.5,0c-0.3,0-0.3,0-0.3,0.3
	c0,2.1,0,4.3,0,6.4c0,0.3,0.1,0.3,0.3,0.3c0.8,0,1.7,0,2.5,0c0.3,0,0.3-0.1,0.3-0.3C28.1-6.9,28.1-8,28.1-9.1z"/>
</svg>
