<?xml version="1.0" encoding="utf-8"?>
<!-- Generator: Adobe Illustrator 28.0.0, SVG Export Plug-In . SVG Version: 6.00 Build 0)  -->
<svg version="1.1" id="Layer_1" xmlns="http://www.w3.org/2000/svg" xmlns:xlink="http://www.w3.org/1999/xlink" x="0px" y="0px"
	 viewBox="0 0 24 24" style="enable-background:new 0 0 24 24;" xml:space="preserve">
<style type="text/css">
	.st0{stroke:#000000;stroke-width:0.5;stroke-miterlimit:10;}
	.st1{fill:#DC8556;}
	.st2{fill:#DC8556;stroke:#DC8556;stroke-width:0.5;stroke-miterlimit:10;}
</style>
<path class="st0" d="M-24.7,13.6c-0.7,0-1.4,0-2.1,0c-0.4,0-0.6-0.2-0.6-0.6c0-0.3,0-0.6,0-0.9c0-0.2-0.1-0.3-0.2-0.3
	c-1.5-0.9-2.5-2.2-2.9-3.9c-0.8-3.4,1.6-6.8,5.1-7.2c3.3-0.4,6.4,2,6.6,5.4c0.2,2.5-0.8,4.4-3,5.7c-0.2,0.1-0.3,0.2-0.3,0.5
	c0,0.3,0,0.5,0,0.8c0,0.4-0.2,0.6-0.6,0.6C-23.3,13.6-24,13.6-24.7,13.6z M-23,12.5c0-0.3,0-0.5,0-0.8c0-0.4,0.1-0.6,0.5-0.8
	c1.9-0.9,3-2.9,2.7-5c-0.2-1.9-1.3-3.3-3.1-4c-1.8-0.7-3.5-0.4-5,0.9c-2.6,2.3-2,6.5,1.2,8c0.3,0.1,0.5,0.4,0.4,0.7
	c0,0.3,0,0.6,0,0.9C-25.2,12.5-24.1,12.5-23,12.5z"/>
<path class="st0" d="M-24.7,15.5c0.7,0,1.4,0,2.1,0c0.3,0,0.6,0.2,0.6,0.4c0.1,0.4-0.2,0.6-0.6,0.6c-0.8,0-1.6,0-2.4,0
	c-0.6,0-1.2,0-1.8,0c-0.4,0-0.6-0.2-0.6-0.6c0-0.3,0.3-0.5,0.6-0.5C-26,15.5-25.4,15.5-24.7,15.5z"/>
<path class="st0" d="M-16,11.1c0.3,0.2,0.6,0.4,1,0.6c0.2,0.1,0.2,0.3,0.1,0.6c-0.2,0.3-0.4,0.5-0.6,0.4c-0.4-0.2-0.7-0.4-1.1-0.6
	c-0.3-0.2-0.6-0.3-0.8-0.5c-0.2-0.1-0.2-0.4,0-0.7c0.2-0.3,0.4-0.4,0.5-0.3C-16.7,10.7-16.3,10.9-16,11.1z"/>
<path class="st0" d="M-15.2,4.7c0.4,0,0.9,0,1.3,0c0.2,0,0.4,0.2,0.4,0.4c0,0.4-0.1,0.6-0.4,0.6c-0.5,0-1,0-1.5,0
	c-0.4,0-0.7,0-1.1,0c-0.2,0-0.4-0.2-0.4-0.6c0-0.3,0.2-0.5,0.4-0.5C-16.1,4.7-15.7,4.7-15.2,4.7z"/>
<path class="st0" d="M-18.6-1.2c0.2-0.3,0.4-0.7,0.6-1c0.1-0.2,0.3-0.2,0.6-0.1c0.3,0.2,0.5,0.4,0.4,0.6c-0.2,0.4-0.5,0.8-0.7,1.2
	c-0.2,0.3-0.3,0.6-0.5,0.9c-0.1,0.2-0.4,0.2-0.7,0c-0.3-0.2-0.4-0.4-0.3-0.6C-19-0.5-18.8-0.8-18.6-1.2z"/>
<path class="st0" d="M-33.7,11.3c-0.3,0.2-0.6,0.4-1,0.6c-0.2,0.1-0.2,0.3-0.1,0.6c0.2,0.3,0.4,0.5,0.6,0.4c0.4-0.2,0.7-0.4,1.1-0.6
	c0.3-0.2,0.6-0.3,0.8-0.5c0.2-0.1,0.2-0.4,0-0.7c-0.2-0.3-0.4-0.4-0.5-0.3C-33.1,10.9-33.4,11.1-33.7,11.3z"/>
<path class="st0" d="M-34.5,4.9c-0.4,0-0.9,0-1.3,0c-0.2,0-0.4,0.2-0.4,0.4c0,0.4,0.1,0.6,0.4,0.6c0.5,0,1,0,1.5,0
	c0.4,0,0.7,0,1.1,0c0.2,0,0.4-0.2,0.4-0.6c0-0.3-0.2-0.5-0.4-0.5C-33.6,4.9-34,4.9-34.5,4.9z"/>
<path class="st0" d="M-31.1-1c-0.2-0.3-0.4-0.7-0.6-1c-0.1-0.2-0.3-0.2-0.6-0.1c-0.3,0.2-0.5,0.4-0.4,0.6c0.2,0.4,0.5,0.8,0.7,1.2
	c0.2,0.3,0.3,0.6,0.5,0.9c0.1,0.2,0.4,0.2,0.7,0c0.3-0.2,0.4-0.4,0.3-0.6C-30.7-0.3-30.9-0.7-31.1-1z"/>
<g>
	<path class="st1" d="M50.2,16.2c0-1.4,0-2.7,0-4.1c0-0.5-0.1-0.7-0.7-0.7c-1.7,0-3.3,0-5,0c-1,0-1.1-0.1-1.1-1.1c0-1.9,0-3.8,0-5.7
		c0-0.7,0.3-1,1-1c1.7,0,3.4,0,5.1,0c0.5,0,0.7-0.1,0.7-0.6c0-1.3,0-1.3,1.3-1.3c0.2,0,0.5,0,0.7,0c1.4,0,1.4,0,1.5,1.4
		c0,0.5,0.2,0.5,0.6,0.5c1.2,0,2.5,0,3.7,0c0.5,0,0.9,0.1,1.2,0.5C60,5.1,60.7,6,61.5,6.8c0.5,0.5,0.4,1,0,1.5
		c-0.8,0.8-1.5,1.7-2.2,2.6c-0.3,0.4-0.7,0.5-1.1,0.5c-1.2,0-2.5,0-3.7,0c-0.6,0-0.7,0.2-0.7,0.7c0,2.7,0,5.3,0,8
		c0,1.2-0.1,1.3-1.3,1.3c-0.3,0-0.7,0-1,0c-1.1,0-1.2-0.1-1.2-1.2C50.2,18.9,50.2,17.6,50.2,16.2z M51.6,5.1c-2,0-4.1,0-6.1,0
		c-0.5,0-0.7,0.1-0.7,0.6c0,1.2,0,2.5,0,3.7c0,0.5,0.1,0.6,0.6,0.6c4.1,0,8.2,0,12.2,0c0.3,0,0.6,0,0.8-0.3c0.5-0.6,1-1.3,1.6-1.9
		c0.2-0.3,0.2-0.4,0-0.7c-0.5-0.5-1-1.1-1.4-1.7c-0.3-0.3-0.6-0.5-1-0.5C55.6,5.1,53.6,5.1,51.6,5.1z M52.3,15.8c0-1.2,0-2.4,0-3.6
		c0-0.3,0-0.6-0.4-0.6c-0.4,0-0.4,0.3-0.4,0.6c0,2.4,0,4.8,0,7.3c0,0.3,0,0.6,0.4,0.6c0.4,0,0.4-0.3,0.4-0.6
		C52.3,18.3,52.3,17.1,52.3,15.8z"/>
</g>
<g>
	<g>
		<path class="st2" d="M11.3,14.6c-1.7,0-4.9,0-6.6,0c-1,0-1.1-0.1-1.1-1.1c0-1.9,0-3.8,0-5.7c0-0.8,0.3-1,1-1c1.7,0,3.4,0,5.1,0
			c0.7,0,0.6,0.1,0.6-1.6c0-0.2,0.1-0.3,0.3-0.3c1,0,2.1,0,3.1,0c0.2,0,0.3,0.2,0.3,0.3c0,1.6-0.1,1.6,0.4,1.6c1.4,0,2.8,0,4.2,0
			c0.2,0,0.3,0.1,0.5,0.2c0.8,1,1.7,2,2.6,3c0.4,0.4,0.4,1.1,0,1.5c-0.8,0.8-1.5,1.7-2.2,2.5c-0.3,0.4-0.7,0.6-1.2,0.6
			c-1.2,0-3.5,0-4.8,0 M11.8,8.2c-2,0-4.1,0-6.1,0C5.2,8.1,5,8.3,5,8.8c0,1.2,0,2.5,0,3.7c0,0.5,0.1,0.6,0.6,0.6c4.1,0,8.2,0,12.3,0
			c0.3,0,0.6,0,0.8-0.3c0.5-0.6,1-1.3,1.6-1.9c0.2-0.3,0.2-0.4,0-0.7c-0.5-0.5-1-1.1-1.4-1.7c-0.3-0.3-0.6-0.5-1-0.5
			C15.8,8.2,13.8,8.2,11.8,8.2z"/>
	</g>
	<path class="st2" d="M13.5,23.1v-8.5c0-0.2-0.2-0.4-0.4-0.4h-1.3c-0.2,0-0.4,0.2-0.4,0.4v8.5c0,0.3,0.2,0.6,0.5,0.6h1
		C13.2,23.7,13.5,23.4,13.5,23.1z"/>
</g>
</svg>
