<?xml version="1.0" encoding="utf-8"?>
<!-- Generator: Adobe Illustrator 28.0.0, SVG Export Plug-In . SVG Version: 6.00 Build 0)  -->
<svg version="1.1" id="Layer_1" xmlns="http://www.w3.org/2000/svg" xmlns:xlink="http://www.w3.org/1999/xlink" x="0px" y="0px"
	 viewBox="0 0 24 14" style="enable-background:new 0 0 24 14;" xml:space="preserve">
<style type="text/css">
	.st0{fill:none;}
	.st1{fill:#1ABC9C;}
</style>
<path class="st0" d="M0-5h24v24H0V-5z"/>
<g>
	<g>
		<g>
			<path class="st1" d="M15.9,7c0.2-4.1-3.7-7.3-7.7-6.3c-4,1-5.9,5.7-3.9,9.2c1.2,2,3.4,3.1,5.7,3.1c1,0,1-1.5,0-1.5
				c-3.2,0.1-5.8-2.8-4.9-6c0.9-3,4.5-4.3,7.1-2.6c1.4,0.9,2.2,2.6,2.1,4.3C14.4,8,15.9,8,15.9,7L15.9,7z"/>
		</g>
	</g>
	<g>
		<g>
			<path class="st1" d="M12.1,11.7c1.1,0,2.1,0,3.2,0c0.2,0,0.3,0,0.5,0c0.4,0,0.8-0.3,0.8-0.8c0-0.4-0.3-0.8-0.8-0.8
				c-1.1,0-2.1,0-3.2,0c-0.2,0-0.3,0-0.5,0c-0.4,0-0.8,0.3-0.8,0.8C11.4,11.4,11.7,11.7,12.1,11.7L12.1,11.7z"/>
		</g>
	</g>
	<g>
		<g>
			<path class="st1" d="M13.2,9.1c0,1.1,0,2.1,0,3.2c0,0.2,0,0.3,0,0.5c0,0.4,0.3,0.8,0.8,0.8c0.4,0,0.8-0.3,0.8-0.8
				c0-1.1,0-2.1,0-3.2c0-0.2,0-0.3,0-0.5c0-0.4-0.3-0.8-0.8-0.8C13.5,8.4,13.2,8.7,13.2,9.1L13.2,9.1z"/>
		</g>
	</g>
	<g>
		<g>
			<path class="st1" d="M7.9,6.2C7.9,6.2,7.9,6.2,7.9,6.2c0.1,0,0.2,0,0.3-0.1c0.1,0,0.2-0.1,0.2-0.2c0.1-0.1,0.1-0.1,0.2-0.2
				c0-0.1,0.1-0.2,0.1-0.3c0-0.1,0-0.1,0-0.2C8.6,5.2,8.5,5,8.4,5c-0.1,0-0.1-0.1-0.2-0.1C8.1,4.8,8,4.7,7.9,4.7c0,0,0,0,0,0
				c-0.1,0-0.2,0-0.3,0.1C7.5,4.8,7.4,4.9,7.3,5C7.3,5,7.2,5.1,7.2,5.2c0,0.1-0.1,0.2-0.1,0.3c0,0.1,0,0.1,0,0.2
				c0,0.1,0.1,0.2,0.2,0.3c0.1,0,0.1,0.1,0.2,0.1C7.6,6.2,7.7,6.2,7.9,6.2L7.9,6.2z"/>
		</g>
	</g>
	<g>
		<g>
			<path class="st1" d="M11.5,6.2C11.5,6.2,11.5,6.2,11.5,6.2c0.1,0,0.2,0,0.3-0.1c0.1,0,0.2-0.1,0.2-0.2c0.1-0.1,0.1-0.1,0.2-0.2
				c0-0.1,0.1-0.2,0.1-0.3c0-0.1,0-0.1,0-0.2c0-0.1-0.1-0.2-0.2-0.3c-0.1,0-0.1-0.1-0.2-0.1c-0.1-0.1-0.2-0.1-0.4-0.1c0,0,0,0,0,0
				c-0.1,0-0.2,0-0.3,0.1c-0.1,0-0.2,0.1-0.2,0.2c-0.1,0.1-0.1,0.1-0.2,0.2c0,0.1-0.1,0.2-0.1,0.3c0,0.1,0,0.1,0,0.2
				c0,0.1,0.1,0.2,0.2,0.3c0.1,0,0.1,0.1,0.2,0.1C11.3,6.2,11.4,6.2,11.5,6.2L11.5,6.2z"/>
		</g>
	</g>
	<g>
		<g>
			<path class="st1" d="M7.7,9c0.6,0.5,1.3,0.8,2,0.8c0.8,0,1.5-0.3,2-0.8C12,8.8,12,8.3,11.7,8c-0.3-0.3-0.8-0.3-1.1,0
				c0,0-0.1,0.1-0.1,0.1c0.1-0.1,0.1-0.1,0,0c0,0-0.1,0-0.1,0.1c-0.1,0-0.1,0.1-0.2,0.1c0,0-0.1,0-0.1,0c-0.1,0-0.1,0,0,0
				c0,0-0.3,0.1-0.4,0.1c0,0-0.1,0-0.1,0c0.1,0,0.1,0,0.1,0c-0.1,0-0.1,0-0.2,0c-0.1,0-0.1,0-0.2,0c-0.1,0-0.1,0,0.1,0
				c0,0-0.1,0-0.1,0c0,0-0.4-0.1-0.4-0.1c0.1,0,0.1,0.1,0,0c0,0-0.1,0-0.1,0C9,8.2,9,8.2,8.9,8.1c0,0-0.1,0-0.1-0.1
				c-0.1,0-0.1,0,0,0c0,0-0.1-0.1-0.1-0.1C8.4,7.7,7.9,7.7,7.7,8C7.4,8.3,7.3,8.8,7.7,9L7.7,9z"/>
		</g>
	</g>
</g>
</svg>
