<?xml version="1.0" encoding="utf-8"?>
<!-- Generator: Adobe Illustrator 28.0.0, SVG Export Plug-In . SVG Version: 6.00 Build 0)  -->
<svg version="1.1" id="Layer_1" xmlns="http://www.w3.org/2000/svg" xmlns:xlink="http://www.w3.org/1999/xlink" x="0px" y="0px"
	 viewBox="0 0 24 24" style="enable-background:new 0 0 24 24;" xml:space="preserve">
<style type="text/css">
	.st0{fill:none;}
	.st1{fill:none;stroke:#1ABC9C;stroke-width:2;stroke-linecap:round;stroke-linejoin:round;}
</style>
<path class="st0" d="M0,0h24v24H0V0z"/>
<path class="st1" d="M12,3c0.1,0,0.3,0,0.4,0c-3,2.8-3.2,7.6-0.4,10.6c2.1,2.3,5.4,3,8.3,1.8c-1.9,4.6-7.2,6.8-11.8,4.9
	S1.8,13.1,3.7,8.5C5.1,5.2,8.4,3,12,3L12,3z"/>
<path class="st1" d="M17,4c0,1.1,0.9,2,2,2c-1.1,0-2,0.9-2,2c0-1.1-0.9-2-2-2C16.1,6,17,5.1,17,4"/>
<path class="st1" d="M19,11h2 M20,10v2"/>
</svg>
