<?xml version="1.0" encoding="utf-8"?>
<!-- Generator: Adobe Illustrator 28.0.0, SVG Export Plug-In . SVG Version: 6.00 Build 0)  -->
<svg version="1.1" id="Layer_1" xmlns="http://www.w3.org/2000/svg" xmlns:xlink="http://www.w3.org/1999/xlink" x="0px" y="0px"
	 viewBox="0 0 24 14" style="enable-background:new 0 0 24 14;" xml:space="preserve">
<style type="text/css">
	.st0{fill:#1ABC9C;}
</style>
<g>
	<polygon class="st0" points="-15.4,8.4 -16.7,10 -15.4,13 -14.2,11.4 	"/>
	<polygon class="st0" points="-14.7,15 -13.5,17.8 -12.3,16.2 -13.5,13.4 	"/>
	<polygon class="st0" points="-5.3,2.6 -6.4,4.2 -4.2,5.5 -3,4 	"/>
	<polygon class="st0" points="-10.2,1.9 -8,3.2 -6.8,1.7 -9,0.4 	"/>
	<polygon class="st0" points="-12,11.5 -10.5,13.9 -9.4,12.4 -10.8,10 	"/>
	<polygon class="st0" points="-11.8,8.3 -13.3,5.8 -14.5,7.3 -13,9.8 	"/>
	<polygon class="st0" points="-12.4,4.6 -10.5,6.5 -9.3,5 -11.2,3.2 	"/>
	<polygon class="st0" points="-9.2,7.8 -7.3,9.7 -6.2,8.2 -8.1,6.3 	"/>
	<path class="st0" d="M-9.9-3.9l-1.3,1.7l-1.3-1.6c-1-1.3-2.5-2.1-4-2.1c-1.6,0-3,0.8-4.1,2.1l-0.1,0.1c-0.6-0.6-1.4-0.9-2.3-0.9
		c-2.2,0-4,2.2-4,5v15.4h1.6V0.3c0-1.6,1.1-2.9,2.4-2.9c0.5,0,1,0.2,1.3,0.5l0,0c-0.4,1-0.7,2.1-0.7,3.3c0,2,0.6,3.8,1.7,5l1.3,1.6
		l-1.2,1.5l1,1.3L-8.9-2.6L-9.9-3.9z M-18.3,6.3l-1.2-1.4c-0.7-0.9-1.2-2.2-1.2-3.6c0-2.8,1.8-5.1,4.1-5.1c1.1,0,2.2,0.6,2.9,1.5
		l1.2,1.4L-18.3,6.3z"/>
</g>
<g>
	<path class="st0" d="M3.4,0.4C5-0.3,6.8,0,8,1c0.5,0.4,1,0.9,1.5,1.3c0.2-0.2,0.5-0.4,0.7-0.6c1.6-1.4,4.1-1.4,5.7,0
		c0.5,0.4,0.9,0.8,1.4,1.2c-2.8,2.5-5.6,5-8.5,7.6C8.2,9.9,7.5,9.4,7,8.8C5.8,7.5,6,5.5,7.3,4.3c0.3-0.2,0.5-0.5,0.8-0.7
		C7.8,3.3,7.5,3.1,7.3,2.9C7.1,2.7,6.9,2.5,6.7,2.3C6,1.8,5.3,1.6,4.5,1.9 M14.4,2.9c-0.1,0-0.1-0.1-0.2-0.2
		c-0.8-0.5-1.8-0.5-2.5,0.1c-0.4,0.3-0.7,0.6-1,0.9C10,4.4,9.3,4.9,8.7,5.5C8,6.2,8,7.4,8.8,8C10.6,6.3,12.5,4.6,14.4,2.9z"/>
	<path class="st0" d="M13.8,8.6c0.4-0.4,0.9-0.8,1.4-1.2c1.1,0.9,2.1,1.9,3.2,2.9c-0.4,0.4-0.9,0.8-1.4,1.2
		C15.9,10.5,14.8,9.6,13.8,8.6z"/>
	<path class="st0" d="M16.6,6.1c0.4-0.4,0.9-0.8,1.3-1.2c1.1,1,2.2,1.9,3.2,2.9c-0.4,0.4-0.9,0.8-1.3,1.2C18.7,8,17.7,7,16.6,6.1z"
		/>
	<path class="st0" d="M15.5,12.8c-0.4,0.4-0.9,0.8-1.3,1.2c-1.1-1-2.1-1.9-3.2-2.9c0.4-0.4,0.9-0.8,1.3-1.2
		C13.4,10.9,14.4,11.8,15.5,12.8z"/>
</g>
</svg>
