<?xml version="1.0" encoding="utf-8"?>
<!-- Generator: Adobe Illustrator 28.0.0, SVG Export Plug-In . SVG Version: 6.00 Build 0)  -->
<svg version="1.1" id="Layer_1" xmlns="http://www.w3.org/2000/svg" xmlns:xlink="http://www.w3.org/1999/xlink" x="0px" y="0px"
	 viewBox="0 0 14 14" style="enable-background:new 0 0 14 14;" xml:space="preserve">
<style type="text/css">
	.st0{fill:none;}
	.st1{fill:#1ABC9C;}
</style>
<path class="st0" d="M-5-5h24v24H-5V-5z"/>
<g>
	<g>
		<g>
			<path class="st1" d="M3.7,7c0,1.4,0.9,2.6,2.2,3.1c1.2,0.5,2.8,0.1,3.6-1c0.9-1.1,1.1-2.6,0.3-3.8C9.1,4.1,7.7,3.5,6.3,3.8
				C4.8,4,3.7,5.5,3.7,7c0,0.4,0.3,0.8,0.8,0.8c0.4,0,0.7-0.3,0.8-0.8c0-0.1,0-0.1,0-0.2c0-0.1,0,0,0,0c0-0.1,0-0.2,0.1-0.3
				c0-0.1,0-0.1,0.1-0.2c0,0-0.1,0.1,0,0C5.4,6.1,5.5,6,5.6,5.9c0.1-0.2-0.1,0.1,0,0c0,0,0.1-0.1,0.1-0.1c0,0,0.3-0.2,0.1-0.1
				C5.9,5.5,6,5.5,6.1,5.4c0,0,0.1,0,0.1-0.1c0.1,0,0.1,0,0,0c0,0,0.1,0,0.1,0c0.1,0,0.2-0.1,0.3-0.1c0,0,0.2,0,0,0
				c0.1,0,0.1,0,0.2,0c0.1,0,0.2,0,0.4,0c0.1,0-0.2,0,0,0c0.1,0,0.1,0,0.2,0c0.1,0,0.1,0,0.2,0.1c0,0,0.1,0.1,0,0
				c0.1,0,0.2,0.1,0.3,0.2c0,0,0.1,0.1,0.1,0.1c0.1,0.1-0.1-0.1,0,0c0.1,0.1,0.2,0.2,0.3,0.3c-0.1-0.1,0,0,0,0C8.5,6,8.5,6,8.5,6.1
				c0,0,0,0.1,0.1,0.1c0,0,0.1,0.2,0,0.1c0,0.1,0.1,0.2,0.1,0.3c0,0,0,0.1,0,0.1c0,0.1,0,0.1,0,0c0,0,0,0.1,0,0.1c0,0.1,0,0.2,0,0.3
				c0,0,0,0.2,0,0.1c0,0,0,0.1,0,0.1c0,0.1-0.1,0.2-0.1,0.3c-0.1,0.2,0.1-0.1,0,0.1c0,0.1-0.1,0.1-0.1,0.2c0,0-0.1,0.1-0.1,0.1
				c0,0-0.1,0.1,0,0C8.4,8.2,8.3,8.3,8.2,8.3c0,0-0.2,0.1-0.1,0.1C8.2,8.3,8,8.5,8,8.5C7.9,8.5,7.8,8.6,7.7,8.7c0,0,0.1,0,0,0
				c-0.1,0-0.1,0-0.2,0.1c0,0-0.1,0-0.1,0c0,0-0.2,0-0.1,0c0.1,0-0.1,0-0.1,0c-0.1,0-0.1,0-0.2,0c-0.1,0-0.1,0-0.2,0
				c-0.2,0,0.1,0-0.1,0c-0.1,0-0.3-0.1-0.4-0.1c-0.2-0.1,0.1,0,0,0c-0.1,0-0.1-0.1-0.2-0.1c0,0-0.1,0-0.1-0.1c0,0-0.1-0.1-0.1-0.1
				c0.1,0,0.1,0,0,0C5.8,8.3,5.7,8.2,5.6,8.2C5.5,8,5.7,8.3,5.6,8.1C5.5,8,5.5,8,5.5,7.9c0-0.1-0.1-0.1-0.1-0.2
				c-0.1-0.1,0,0.1,0-0.1c0-0.1-0.1-0.3-0.1-0.4c0,0,0-0.1,0,0c0-0.1,0-0.2,0-0.3c0-0.4-0.3-0.8-0.8-0.8C4,6.2,3.7,6.6,3.7,7L3.7,7z
				"/>
		</g>
	</g>
	<g>
		<g>
			<path class="st1" d="M1.3,7.8c0.2,0,0.4,0,0.6,0c0,0,0.1,0,0.1,0c0.1,0,0.2,0,0.3-0.1c0.1,0,0.2-0.1,0.2-0.2
				c0.1-0.1,0.1-0.1,0.2-0.2c0-0.1,0.1-0.2,0.1-0.3c0-0.1,0-0.1,0-0.2c0-0.1-0.1-0.2-0.2-0.3c-0.1,0-0.1-0.1-0.2-0.1
				C2.2,6.3,2,6.3,1.9,6.2c-0.2,0-0.4,0-0.6,0c0,0-0.1,0-0.1,0c-0.1,0-0.2,0-0.3,0.1c-0.1,0-0.2,0.1-0.2,0.2
				C0.7,6.5,0.6,6.6,0.6,6.7c0,0.1-0.1,0.2-0.1,0.3c0,0.1,0,0.1,0,0.2c0,0.1,0.1,0.2,0.2,0.3c0.1,0,0.1,0.1,0.2,0.1
				C1,7.7,1.1,7.7,1.3,7.8L1.3,7.8z"/>
			<path class="st1" d="M6.2,1.3c0,0.2,0,0.4,0,0.6c0,0,0,0.1,0,0.1c0,0.1,0,0.2,0.1,0.3c0,0.1,0.1,0.2,0.2,0.2
				c0.1,0.1,0.1,0.1,0.2,0.2c0.1,0,0.2,0.1,0.3,0.1c0.1,0,0.1,0,0.2,0c0.1,0,0.2-0.1,0.3-0.2c0-0.1,0.1-0.1,0.1-0.2
				C7.7,2.2,7.7,2,7.8,1.9c0-0.2,0-0.4,0-0.6c0,0,0-0.1,0-0.1c0-0.1,0-0.2-0.1-0.3c0-0.1-0.1-0.2-0.2-0.2C7.5,0.7,7.4,0.6,7.3,0.6
				C7.2,0.5,7.1,0.5,7,0.5c-0.1,0-0.1,0-0.2,0c-0.1,0-0.2,0.1-0.3,0.2c0,0.1-0.1,0.1-0.1,0.2C6.3,1,6.3,1.1,6.2,1.3L6.2,1.3z"/>
			<path class="st1" d="M12.1,7.8c0.2,0,0.4,0,0.6,0c0,0,0.1,0,0.1,0c0.1,0,0.2,0,0.3-0.1c0.1,0,0.2-0.1,0.2-0.2
				c0.1-0.1,0.1-0.1,0.2-0.2c0-0.1,0.1-0.2,0.1-0.3c0-0.1,0-0.1,0-0.2c0-0.1-0.1-0.2-0.2-0.3c-0.1,0-0.1-0.1-0.2-0.1
				c-0.1-0.1-0.2-0.1-0.4-0.1c-0.2,0-0.4,0-0.6,0c0,0-0.1,0-0.1,0c-0.1,0-0.2,0-0.3,0.1c-0.1,0-0.2,0.1-0.2,0.2
				c-0.1,0.1-0.1,0.1-0.2,0.2c0,0.1-0.1,0.2-0.1,0.3c0,0.1,0,0.1,0,0.2c0,0.1,0.1,0.2,0.2,0.3c0.1,0,0.1,0.1,0.2,0.1
				C11.8,7.7,12,7.7,12.1,7.8L12.1,7.8z"/>
			<path class="st1" d="M6.2,12.1c0,0.2,0,0.4,0,0.6c0,0,0,0.1,0,0.1c0,0.1,0,0.2,0.1,0.3c0,0.1,0.1,0.2,0.2,0.2
				c0.1,0.1,0.1,0.1,0.2,0.2c0.1,0,0.2,0.1,0.3,0.1c0.1,0,0.1,0,0.2,0c0.1,0,0.2-0.1,0.3-0.2c0-0.1,0.1-0.1,0.1-0.2
				c0.1-0.1,0.1-0.2,0.1-0.4c0-0.2,0-0.4,0-0.6c0,0,0-0.1,0-0.1c0-0.1,0-0.2-0.1-0.3c0-0.1-0.1-0.2-0.2-0.2
				c-0.1-0.1-0.1-0.1-0.2-0.2c-0.1,0-0.2-0.1-0.3-0.1c-0.1,0-0.1,0-0.2,0c-0.1,0-0.2,0.1-0.3,0.2c0,0.1-0.1,0.1-0.1,0.2
				C6.3,11.8,6.3,12,6.2,12.1L6.2,12.1z"/>
			<path class="st1" d="M2.4,3.5c0.1,0.1,0.3,0.3,0.4,0.4c0,0,0,0,0.1,0.1C2.9,4,3,4,3.1,4.1c0.1,0,0.2,0.1,0.3,0.1
				c0.1,0,0.2,0,0.3-0.1C3.8,4,3.8,4,3.9,3.9C3.9,3.8,4,3.8,4,3.7c0.1-0.1,0.1-0.2,0.1-0.4c0-0.1,0-0.1,0-0.2C4.1,3,4,2.9,3.9,2.8
				C3.8,2.7,3.6,2.6,3.5,2.4c0,0,0,0-0.1-0.1C3.4,2.3,3.3,2.3,3.2,2.2C3.1,2.2,3,2.2,2.9,2.2c-0.1,0-0.2,0-0.3,0.1
				c-0.1,0-0.2,0.1-0.2,0.2c0,0.1-0.1,0.1-0.1,0.2C2.2,2.7,2.2,2.8,2.2,2.9c0,0.1,0,0.1,0,0.2C2.2,3.2,2.3,3.4,2.4,3.5L2.4,3.5z"/>
			<path class="st1" d="M10.5,2.4c-0.1,0.1-0.3,0.3-0.4,0.4c0,0,0,0-0.1,0.1C10,2.9,10,3,9.9,3.1c0,0.1-0.1,0.2-0.1,0.3
				c0,0.1,0,0.2,0.1,0.3c0,0.1,0.1,0.2,0.2,0.2c0.1,0,0.1,0.1,0.2,0.1c0.1,0.1,0.2,0.1,0.4,0.1c0.1,0,0.1,0,0.2,0
				c0.1,0,0.2-0.1,0.3-0.2c0.1-0.1,0.3-0.3,0.4-0.4c0,0,0,0,0.1-0.1c0.1-0.1,0.1-0.1,0.2-0.2c0-0.1,0.1-0.2,0.1-0.3
				c0-0.1,0-0.2-0.1-0.3c0-0.1-0.1-0.2-0.2-0.2c-0.1,0-0.1-0.1-0.2-0.1c-0.1-0.1-0.2-0.1-0.4-0.1c-0.1,0-0.1,0-0.2,0
				C10.8,2.2,10.6,2.3,10.5,2.4L10.5,2.4z"/>
			<path class="st1" d="M10.1,11.2c0.1,0.1,0.3,0.3,0.4,0.4c0,0,0,0,0.1,0.1c0.1,0.1,0.1,0.1,0.2,0.2c0.1,0,0.2,0.1,0.3,0.1
				c0.1,0,0.2,0,0.3-0.1c0.1,0,0.2-0.1,0.2-0.2c0-0.1,0.1-0.1,0.1-0.2c0.1-0.1,0.1-0.2,0.1-0.4c0-0.1,0-0.1,0-0.2
				c0-0.1-0.1-0.2-0.2-0.3c-0.1-0.1-0.3-0.3-0.4-0.4c0,0,0,0-0.1-0.1C11.1,10,11,10,10.9,9.9c-0.1,0-0.2-0.1-0.3-0.1
				c-0.1,0-0.2,0-0.3,0.1c-0.1,0-0.2,0.1-0.2,0.2c0,0.1-0.1,0.1-0.1,0.2c-0.1,0.1-0.1,0.2-0.1,0.4c0,0.1,0,0.1,0,0.2
				C9.9,11,10,11.1,10.1,11.2L10.1,11.2z"/>
			<path class="st1" d="M2.8,10.1c-0.1,0.1-0.3,0.3-0.4,0.4c0,0,0,0-0.1,0.1c-0.1,0.1-0.1,0.1-0.2,0.2c0,0.1-0.1,0.2-0.1,0.3
				c0,0.1,0,0.2,0.1,0.3c0,0.1,0.1,0.2,0.2,0.2c0.1,0,0.1,0.1,0.2,0.1c0.1,0.1,0.2,0.1,0.4,0.1c0.1,0,0.1,0,0.2,0
				c0.1,0,0.2-0.1,0.3-0.2c0.1-0.1,0.3-0.3,0.4-0.4c0,0,0,0,0.1-0.1C4,11.1,4,11,4.1,10.9c0-0.1,0.1-0.2,0.1-0.3
				c0-0.1,0-0.2-0.1-0.3c0-0.1-0.1-0.2-0.2-0.2c-0.1,0-0.1-0.1-0.2-0.1C3.6,9.9,3.5,9.9,3.4,9.9c-0.1,0-0.1,0-0.2,0
				C3,9.9,2.9,10,2.8,10.1L2.8,10.1z"/>
		</g>
	</g>
</g>
</svg>
