<?xml version="1.0" encoding="utf-8"?>
<!-- Generator: Adobe Illustrator 28.0.0, SVG Export Plug-In . SVG Version: 6.00 Build 0)  -->
<svg version="1.1" id="Layer_1" xmlns="http://www.w3.org/2000/svg" xmlns:xlink="http://www.w3.org/1999/xlink" x="0px" y="0px"
	 viewBox="0 0 24 24" style="enable-background:new 0 0 24 24;" xml:space="preserve">
<style type="text/css">
	.st0{fill:#DC5697;}
</style>
<g>
	<g>
		<g>
			<path class="st0" d="M20,22.2H4c-1.2,0-2.1-1-2.1-2.1V8.5c0-1.2,1-2.1,2.1-2.1h16c1.2,0,2.1,1,2.1,2.1V20
				C22.1,21.2,21.2,22.2,20,22.2z M4.2,19.8h15.6V8.7H4.2V19.8z"/>
		</g>
		<g>
			<polygon class="st0" points="13.3,8.7 10.7,8.7 6.3,4.3 8.8,1.8 12,5.1 15.2,1.8 17.7,4.3 			"/>
		</g>
	</g>
	<g>
		<path class="st0" d="M19.2,22.1H4.8c-1.6,0-2.9-1.3-2.9-2.9V9.3c0-1.6,1.3-2.9,2.9-2.9l14.4,0c1.6,0,2.9,1.3,2.9,2.9v9.9
			C22.1,20.8,20.8,22.1,19.2,22.1z M19.2,8.7l-14.4,0C4.5,8.7,4.2,9,4.2,9.3v9.9c0,0.3,0.3,0.5,0.6,0.5h14.4c0.3,0,0.6-0.2,0.6-0.5
			V9.3C19.8,9,19.5,8.7,19.2,8.7z"/>
	</g>
</g>
</svg>
